<?xml version="1.0" standalone="no"?>
<!DOCTYPE svg PUBLIC "-//W3C//DTD SVG 20010904//EN"
 "http://www.w3.org/TR/2001/REC-SVG-20010904/DTD/svg10.dtd">
<svg version="1.0" xmlns="http://www.w3.org/2000/svg"
 width="626.000000pt" height="626.000000pt" viewBox="0 0 626.000000 626.000000"
 preserveAspectRatio="xMidYMid meet">
<metadata>
Created by potrace 1.16, written by Peter Selinger 2001-2019
</metadata>
<g transform="translate(0.000000,626.000000) scale(0.100000,-0.100000)"
fill="#000000" stroke="none">
<path d="M2810 6196 c-182 -78 -234 -105 -340 -173 -157 -102 -277 -244 -415
-493 -110 -199 -164 -263 -253 -302 -57 -26 -139 -25 -307 2 -263 41 -460 36
-745 -21 -264 -53 -439 -158 -506 -304 -66 -143 -104 -393 -111 -720 -4 -177
-1 -263 12 -375 34 -298 73 -440 166 -605 77 -135 127 -194 262 -309 192 -163
216 -194 293 -387 86 -212 145 -310 251 -410 128 -122 222 -167 878 -419 275
-106 512 -199 526 -206 36 -18 88 -79 109 -128 9 -23 32 -99 49 -170 73 -298
162 -438 357 -566 86 -57 368 -197 510 -254 161 -64 403 -110 719 -137 240
-20 571 6 772 61 271 74 354 213 409 680 20 178 15 411 -15 645 -39 296 -74
433 -167 637 -73 161 -247 570 -290 679 -64 165 -64 276 -1 399 18 36 147 233
287 439 165 243 265 401 287 452 64 149 115 406 144 724 12 143 8 231 -22 439
-39 269 -67 361 -184 596 -45 91 -93 193 -105 228 l-23 62 -1201 -1 -1201 0
-145 -63z m1720 -456 c0 -7 6 -7 19 0 24 12 71 13 71 1 0 -11 -19 -69 -35
-106 -42 -99 -125 -300 -175 -427 -81 -204 -83 -206 -116 -173 -14 13 -13 22
10 78 120 301 216 555 216 574 0 8 -6 21 -14 29 -13 12 -78 -12 -503 -187
-268 -111 -576 -237 -683 -281 -107 -44 -205 -89 -217 -100 -12 -11 -62 -93
-111 -182 -49 -88 -189 -343 -312 -566 -123 -223 -230 -413 -238 -422 -8 -10
-27 -18 -41 -18 -14 -1 -217 16 -451 36 -234 21 -437 35 -451 31 -19 -5 -44
-34 -89 -102 -35 -52 -65 -93 -67 -91 -8 7 126 206 143 213 13 5 743 -55 895
-74 l46 -5 185 333 c102 184 238 431 303 549 65 118 132 239 149 269 l31 54
130 52 c72 29 198 80 280 115 83 34 254 105 380 157 127 52 277 115 335 139
58 23 141 59 185 78 81 35 125 44 125 26z m300 -571 c0 -7 9 -9 23 -5 64 18
67 18 67 5 0 -8 -36 -66 -79 -129 -44 -63 -256 -375 -473 -693 -216 -318 -464
-682 -550 -809 -87 -127 -158 -236 -158 -243 0 -13 39 -102 165 -380 42 -93
106 -234 141 -313 35 -78 120 -265 188 -415 68 -150 175 -387 239 -527 63
-140 136 -299 161 -353 25 -53 46 -99 46 -102 0 -3 14 -33 30 -67 17 -34 30
-65 30 -70 0 -13 -44 -8 -64 7 -25 19 -37 19 -30 0 5 -11 -1 -15 -18 -15 -13
0 -28 4 -34 9 -8 8 -309 153 -494 238 -30 14 -120 57 -200 95 -80 39 -169 81
-197 94 l-53 24 2 332 2 333 5 -323 c6 -310 7 -324 26 -335 53 -30 859 -416
862 -413 2 2 -24 26 -59 53 -46 36 -492 381 -516 399 -6 4 -105 535 -100 539
2 2 78 -25 169 -60 90 -36 168 -65 173 -65 4 0 6 7 3 14 -4 10 -1 13 8 10 11
-5 12 0 5 23 -7 26 -127 297 -210 478 -5 11 -20 45 -33 75 -33 75 -189 422
-220 490 -14 30 -38 85 -55 121 -16 37 -35 70 -41 74 -9 5 -7 11 7 21 12 8 23
31 27 54 4 23 27 77 51 121 76 138 122 198 94 123 -6 -16 -7 -24 -2 -19 9 10
184 266 557 820 92 138 242 359 333 493 90 134 161 246 158 249 -8 8 18 45
-261 -364 -136 -200 -249 -363 -251 -363 -3 0 108 168 245 373 171 253 246
373 236 375 -14 3 -87 -17 -302 -85 -62 -19 -117 -33 -124 -31 -6 2 31 16 82
32 52 16 155 48 229 72 146 47 160 50 160 33z m-3520 -791 c20 -19 22 -28 17
-83 -2 -37 -15 -86 -31 -120 -32 -71 -32 -75 -2 -75 14 0 28 -5 31 -10 5 -8
11 -7 20 0 8 6 26 10 42 8 24 -3 28 -8 31 -38 4 -44 -28 -95 -80 -129 l-36
-23 13 -46 c12 -39 12 -49 0 -73 -8 -15 -21 -31 -27 -35 -9 -5 -9 -3 1 9 11
15 11 27 -5 82 -13 44 -25 67 -37 71 -38 12 -39 -11 -7 -96 27 -70 31 -86 21
-108 -20 -44 -5 -46 160 -28 125 14 154 15 165 4 13 -13 48 -123 179 -555 38
-123 72 -223 76 -223 5 0 6 -6 3 -13 -3 -8 10 -18 33 -26 21 -8 142 -54 268
-103 127 -50 309 -121 405 -158 1033 -402 1025 -399 1017 -407 -2 -2 -209 76
-458 172 -250 97 -524 203 -609 235 -85 33 -247 95 -360 138 -113 44 -229 87
-258 98 l-53 18 -34 111 c-66 215 -89 290 -92 305 -1 8 -27 95 -58 194 -30 98
-55 185 -55 193 0 13 -10 14 -57 9 -120 -14 -124 -16 -111 -40 6 -11 24 -38
40 -58 27 -34 30 -58 9 -58 -5 0 -28 29 -52 65 -37 54 -49 64 -73 65 -21 0
-26 -3 -19 -12 5 -7 24 -32 42 -56 25 -32 31 -46 23 -54 -15 -15 -41 9 -83 73
-25 40 -36 49 -60 49 -32 0 -35 7 -15 35 12 17 12 24 0 46 -7 15 -24 60 -38
100 -24 72 -25 73 -76 92 -28 11 -71 38 -95 59 -37 32 -45 46 -45 74 0 28 4
35 25 40 14 3 35 4 48 1 12 -3 37 -3 56 1 l34 7 -27 32 c-34 40 -66 110 -66
146 0 15 7 41 15 57 25 49 50 59 140 59 70 0 86 -3 105 -21z"/>
</g>
</svg>
